STARTFONT 2.1
COMMENT $XConsortium: luBIS14.bdf,v 1.8 94/04/02 15:58:33 gildea Exp $
COMMENT  (c) Copyright Bigelow & Holmes 1986, 1985. Lucida is a registered
COMMENT  trademark of Bigelow & Holmes. See LEGAL NOTICE file for terms 
COMMENT  of the license. 
COMMENT GRID 0014 0014 0200 0200
COMMENT  
COMMENT  Translation to ISO8859-2 by Cub Soft;  Petr.Kolar@vslib.cz
COMMENT  
FONT -B&H-Lucida-Bold-I-Normal-Sans-14-140-75-75-P-92-ISO8859-2
SIZE 14 72 72
FONTBOUNDINGBOX 18 15 -1 -2
STARTPROPERTIES 20
COMMENT Begin LogicalFontDescription
FONTNAME_REGISTRY ""
FOUNDRY "B&H"
FAMILY_NAME "Lucida"
WEIGHT_NAME "Bold"
SLANT "I"
SETWIDTH_NAME "Normal"
ADD_STYLE_NAME "Sans"
PIXEL_SIZE 14
POINT_SIZE 140
RESOLUTION_X 75
RESOLUTION_Y 75
SPACING "P"
AVERAGE_WIDTH 92
CHARSET_REGISTRY "ISO8859"
CHARSET_ENCODING "2"
COMMENT END LogicalFontDescription
FONT_ASCENT 13
FONT_DESCENT 2
DEFAULT_CHAR 0
COPYRIGHT "Copyright Bigelow & Holmes 1986, 1985., Copyright 1996 Cub Soft"
FACE_NAME "Lucida Sans Bold Italic"
ENDPROPERTIES
CHARS 191
STARTCHAR space
ENCODING 32
SWIDTH 343 0
DWIDTH 4 0
BBX 1 1 0 0
BITMAP
00
ENDCHAR
STARTCHAR exclam
ENCODING 33
SWIDTH 343 0
DWIDTH 4 0
BBX 4 10 0 0
BITMAP
30
30
30
60
60
60
40
00
c0
c0
ENDCHAR
STARTCHAR quotedbl
ENCODING 34
SWIDTH 530 0
DWIDTH 8 0
BBX 6 4 2 7
BITMAP
6c
6c
d8
d8
ENDCHAR
STARTCHAR numbersign
ENCODING 35
SWIDTH 687 0
DWIDTH 10 0
BBX 9 10 1 0
BITMAP
1b00
1b00
1b00
7f80
3600
3600
ff00
6c00
6c00
6c00
ENDCHAR
STARTCHAR dollar
ENCODING 36
SWIDTH 687 0
DWIDTH 10 0
BBX 8 12 1 -1
BITMAP
08
3e
6b
68
70
38
1c
0e
16
d6
7c
10
ENDCHAR
STARTCHAR percent
ENCODING 37
SWIDTH 908 0
DWIDTH 12 0
BBX 10 10 1 0
BITMAP
30c0
d980
db00
6200
0400
0800
1180
36c0
66c0
c300
ENDCHAR
STARTCHAR ampersand
ENCODING 38
SWIDTH 816 0
DWIDTH 11 0
BBX 9 10 1 0
BITMAP
1e00
3300
3300
1600
3800
5980
cd80
cd00
e600
7b00
ENDCHAR
STARTCHAR apostrophe
ENCODING 39
SWIDTH 265 0
DWIDTH 4 0
BBX 3 4 1 7
BITMAP
60
60
40
80
ENDCHAR
STARTCHAR parenleft
ENCODING 40
SWIDTH 386 0
DWIDTH 6 0
BBX 5 12 1 -1
BITMAP
18
30
60
60
c0
c0
c0
c0
c0
c0
60
30
ENDCHAR
STARTCHAR parenright
ENCODING 41
SWIDTH 386 0
DWIDTH 6 0
BBX 5 12 0 -1
BITMAP
60
30
18
18
18
18
18
18
30
30
60
c0
ENDCHAR
STARTCHAR asterisk
ENCODING 42
SWIDTH 464 0
DWIDTH 7 0
BBX 6 6 1 4
BITMAP
10
54
38
70
a8
20
ENDCHAR
STARTCHAR plus
ENCODING 43
SWIDTH 687 0
DWIDTH 10 0
BBX 7 7 1 1
BITMAP
08
08
10
fe
10
20
20
ENDCHAR
STARTCHAR comma
ENCODING 44
SWIDTH 343 0
DWIDTH 4 0
BBX 3 4 0 -2
BITMAP
60
60
40
80
ENDCHAR
STARTCHAR minus
ENCODING 45
SWIDTH 687 0
DWIDTH 9 0
BBX 7 1 1 4
BITMAP
fe
ENDCHAR
STARTCHAR period
ENCODING 46
SWIDTH 343 0
DWIDTH 4 0
BBX 2 2 1 0
BITMAP
c0
c0
ENDCHAR
STARTCHAR slash
ENCODING 47
SWIDTH 596 0
DWIDTH 9 0
BBX 9 12 0 -1
BITMAP
0180
0300
0300
0600
0c00
0c00
1800
1800
3000
6000
6000
c000
ENDCHAR
STARTCHAR zero
ENCODING 48
SWIDTH 687 0
DWIDTH 10 0
BBX 8 10 1 0
BITMAP
1e
33
63
63
63
c6
c6
c6
cc
78
ENDCHAR
STARTCHAR one
ENCODING 49
SWIDTH 687 0
DWIDTH 10 0
BBX 4 10 3 0
BITMAP
30
f0
30
30
30
60
60
60
60
60
ENDCHAR
STARTCHAR two
ENCODING 50
SWIDTH 687 0
DWIDTH 10 0
BBX 8 10 1 0
BITMAP
3e
43
03
03
06
1c
30
c0
fe
fe
ENDCHAR
STARTCHAR three
ENCODING 51
SWIDTH 687 0
DWIDTH 10 0
BBX 8 10 1 0
BITMAP
3e
43
03
06
3c
06
06
06
8c
78
ENDCHAR
STARTCHAR four
ENCODING 52
SWIDTH 687 0
DWIDTH 10 0
BBX 8 10 1 0
BITMAP
0e
16
26
46
86
8c
ff
0c
0c
0c
ENDCHAR
STARTCHAR five
ENCODING 53
SWIDTH 687 0
DWIDTH 10 0
BBX 8 10 1 0
BITMAP
3f
3f
20
40
7c
0e
06
06
8c
78
ENDCHAR
STARTCHAR six
ENCODING 54
SWIDTH 687 0
DWIDTH 10 0
BBX 8 10 1 0
BITMAP
1e
33
60
60
7c
c6
c6
c6
cc
78
ENDCHAR
STARTCHAR seven
ENCODING 55
SWIDTH 687 0
DWIDTH 10 0
BBX 8 10 1 0
BITMAP
7f
7f
03
06
0c
18
30
60
c0
c0
ENDCHAR
STARTCHAR eight
ENCODING 56
SWIDTH 687 0
DWIDTH 10 0
BBX 8 10 1 0
BITMAP
3e
63
63
73
3a
5c
ce
c6
c6
7c
ENDCHAR
STARTCHAR nine
ENCODING 57
SWIDTH 687 0
DWIDTH 10 0
BBX 8 10 1 0
BITMAP
1e
33
63
63
63
3e
06
06
cc
78
ENDCHAR
STARTCHAR colon
ENCODING 58
SWIDTH 343 0
DWIDTH 4 0
BBX 3 7 0 0
BITMAP
60
60
00
00
00
c0
c0
ENDCHAR
STARTCHAR semicolon
ENCODING 59
SWIDTH 343 0
DWIDTH 4 0
BBX 4 9 -1 -2
BITMAP
30
30
00
00
00
60
60
40
80
ENDCHAR
STARTCHAR less
ENCODING 60
SWIDTH 687 0
DWIDTH 10 0
BBX 7 7 1 1
BITMAP
06
1c
70
c0
60
30
18
ENDCHAR
STARTCHAR equal
ENCODING 61
SWIDTH 687 0
DWIDTH 10 0
BBX 7 3 1 3
BITMAP
7e
00
fc
ENDCHAR
STARTCHAR greater
ENCODING 62
SWIDTH 687 0
DWIDTH 10 0
BBX 7 7 1 1
BITMAP
30
18
0c
06
1c
70
c0
ENDCHAR
STARTCHAR question
ENCODING 63
SWIDTH 539 0
DWIDTH 8 0
BBX 6 10 1 0
BITMAP
78
cc
0c
1c
38
60
40
00
c0
c0
ENDCHAR
STARTCHAR at
ENCODING 64
SWIDTH 833 0
DWIDTH 13 0
BBX 10 10 1 0
BITMAP
0f00
3080
40c0
47c0
8cc0
9980
9980
8ec0
4000
3f00
ENDCHAR
STARTCHAR A
ENCODING 65
SWIDTH 771 0
DWIDTH 11 0
BBX 9 10 0 0
BITMAP
0180
0380
0780
0d80
1980
3180
3f80
6180
c180
c180
ENDCHAR
STARTCHAR B
ENCODING 66
SWIDTH 660 0
DWIDTH 10 0
BBX 9 10 1 0
BITMAP
7f00
6180
6180
6300
7e00
c300
c300
c300
c600
fc00
ENDCHAR
STARTCHAR C
ENCODING 67
SWIDTH 737 0
DWIDTH 11 0
BBX 10 10 1 0
BITMAP
0f80
30c0
6000
6000
c000
c000
c000
c000
e300
7e00
ENDCHAR
STARTCHAR D
ENCODING 68
SWIDTH 822 0
DWIDTH 12 0
BBX 10 10 1 0
BITMAP
7f80
61c0
60c0
60c0
60c0
c0c0
c180
c180
c300
fe00
ENDCHAR
STARTCHAR E
ENCODING 69
SWIDTH 642 0
DWIDTH 9 0
BBX 8 10 1 0
BITMAP
7f
60
60
60
7e
c0
c0
c0
c0
fe
ENDCHAR
STARTCHAR F
ENCODING 70
SWIDTH 614 0
DWIDTH 9 0
BBX 8 10 1 0
BITMAP
7f
60
60
60
7e
c0
c0
c0
c0
c0
ENDCHAR
STARTCHAR G
ENCODING 71
SWIDTH 755 0
DWIDTH 11 0
BBX 10 10 1 0
BITMAP
0f80
30c0
6000
6000
c000
c000
c180
c180
e300
7f00
ENDCHAR
STARTCHAR H
ENCODING 72
SWIDTH 813 0
DWIDTH 12 0
BBX 10 10 1 0
BITMAP
60c0
60c0
60c0
60c0
7fc0
c180
c180
c180
c180
c180
ENDCHAR
STARTCHAR I
ENCODING 73
SWIDTH 361 0
DWIDTH 5 0
BBX 3 10 1 0
BITMAP
60
60
60
60
60
c0
c0
c0
c0
c0
ENDCHAR
STARTCHAR J
ENCODING 74
SWIDTH 502 0
DWIDTH 7 0
BBX 6 12 0 -2
BITMAP
0c
0c
0c
0c
0c
18
18
18
18
18
30
e0
ENDCHAR
STARTCHAR K
ENCODING 75
SWIDTH 753 0
DWIDTH 11 0
BBX 9 10 1 0
BITMAP
6180
6300
6600
6c00
7800
d800
cc00
c600
c300
c180
ENDCHAR
STARTCHAR L
ENCODING 76
SWIDTH 623 0
DWIDTH 9 0
BBX 7 10 1 0
BITMAP
60
60
60
60
60
c0
c0
c0
c0
fe
ENDCHAR
STARTCHAR M
ENCODING 77
SWIDTH 940 0
DWIDTH 14 0
BBX 12 10 1 0
BITMAP
78f0
58b0
58b0
5930
4d30
8e60
8e60
8c60
8c60
8060
ENDCHAR
STARTCHAR N
ENCODING 78
SWIDTH 789 0
DWIDTH 11 0
BBX 9 10 1 0
BITMAP
7080
7080
5880
5880
5880
8d00
8d00
8d00
8700
8700
ENDCHAR
STARTCHAR O
ENCODING 79
SWIDTH 855 0
DWIDTH 12 0
BBX 10 10 1 0
BITMAP
0f80
31c0
60c0
60c0
c0c0
c0c0
c180
c180
e300
7c00
ENDCHAR
STARTCHAR P
ENCODING 80
SWIDTH 645 0
DWIDTH 9 0
BBX 8 10 1 0
BITMAP
7e
63
63
63
62
fc
c0
c0
c0
c0
ENDCHAR
STARTCHAR Q
ENCODING 81
SWIDTH 855 0
DWIDTH 12 0
BBX 10 12 1 -2
BITMAP
0f80
31c0
60c0
60c0
c0c0
c0c0
c180
c180
e300
7c00
0600
0300
ENDCHAR
STARTCHAR R
ENCODING 82
SWIDTH 708 0
DWIDTH 10 0
BBX 9 10 1 0
BITMAP
7e00
6300
6300
6300
6600
fc00
c600
c600
c300
c380
ENDCHAR
STARTCHAR S
ENCODING 83
SWIDTH 639 0
DWIDTH 10 0
BBX 8 10 1 0
BITMAP
3e
63
60
70
38
1c
0e
06
c6
7c
ENDCHAR
STARTCHAR T
ENCODING 84
SWIDTH 747 0
DWIDTH 10 0
BBX 9 10 1 0
BITMAP
ff80
1800
1800
1800
1800
3000
3000
3000
3000
3000
ENDCHAR
STARTCHAR U
ENCODING 85
SWIDTH 759 0
DWIDTH 11 0
BBX 9 10 1 0
BITMAP
6180
6180
6180
6180
c300
c300
c300
c300
6600
3c00
ENDCHAR
STARTCHAR V
ENCODING 86
SWIDTH 765 0
DWIDTH 11 0
BBX 9 10 2 0
BITMAP
c180
c180
c300
c300
c600
cc00
d800
f000
e000
c000
ENDCHAR
STARTCHAR W
ENCODING 87
SWIDTH 991 0
DWIDTH 15 0
BBX 13 10 2 0
BITMAP
c018
c618
c630
c630
ce60
ce60
d6c0
d680
e700
c600
ENDCHAR
STARTCHAR X
ENCODING 88
SWIDTH 696 0
DWIDTH 10 0
BBX 10 10 0 0
BITMAP
30c0
30c0
1980
1b00
0c00
0c00
3600
6600
c300
c300
ENDCHAR
STARTCHAR Y
ENCODING 89
SWIDTH 681 0
DWIDTH 10 0
BBX 8 10 2 0
BITMAP
c3
c3
c6
cc
d0
60
60
60
60
60
ENDCHAR
STARTCHAR Z
ENCODING 90
SWIDTH 687 0
DWIDTH 9 0
BBX 9 10 0 0
BITMAP
3f80
0380
0700
0e00
0c00
1800
3800
7000
e000
fe00
ENDCHAR
STARTCHAR bracketleft
ENCODING 91
SWIDTH 386 0
DWIDTH 6 0
BBX 6 12 0 -1
BITMAP
3c
30
30
30
60
60
60
60
c0
c0
c0
f0
ENDCHAR
STARTCHAR backslash
ENCODING 92
SWIDTH 566 0
DWIDTH 8 0
BBX 4 12 2 -1
BITMAP
c0
c0
c0
c0
60
60
60
60
30
30
30
30
ENDCHAR
STARTCHAR bracketright
ENCODING 93
SWIDTH 386 0
DWIDTH 6 0
BBX 6 12 0 -1
BITMAP
3c
0c
0c
0c
18
18
18
18
30
30
30
f0
ENDCHAR
STARTCHAR asciicircum
ENCODING 94
SWIDTH 687 0
DWIDTH 10 0
BBX 6 7 2 3
BITMAP
0c
1c
34
24
64
c4
84
ENDCHAR
STARTCHAR underscore
ENCODING 95
SWIDTH 500 0
DWIDTH 11 0
BBX 9 1 1 -1
BITMAP
ff80
ENDCHAR
STARTCHAR grave
ENCODING 96
SWIDTH 663 0
DWIDTH 10 0
BBX 5 2 4 9
BITMAP
e0
38
ENDCHAR
STARTCHAR a
ENCODING 97
SWIDTH 681 0
DWIDTH 10 0
BBX 8 8 1 0
BITMAP
1f
63
63
c3
c6
ce
d6
66
ENDCHAR
STARTCHAR b
ENCODING 98
SWIDTH 681 0
DWIDTH 10 0
BBX 8 11 1 0
BITMAP
30
30
30
66
6b
73
63
c3
c6
c6
f8
ENDCHAR
STARTCHAR c
ENCODING 99
SWIDTH 548 0
DWIDTH 8 0
BBX 7 8 1 0
BITMAP
1e
60
60
c0
c0
c0
c4
78
ENDCHAR
STARTCHAR d
ENCODING 100
SWIDTH 681 0
DWIDTH 10 0
BBX 9 11 1 0
BITMAP
0180
0180
0180
1f00
6300
6300
c300
c600
ce00
d600
6600
ENDCHAR
STARTCHAR e
ENCODING 101
SWIDTH 612 0
DWIDTH 9 0
BBX 7 8 1 0
BITMAP
1c
66
46
cc
f0
c0
c4
78
ENDCHAR
STARTCHAR f
ENCODING 102
SWIDTH 464 0
DWIDTH 7 0
BBX 7 13 1 -2
BITMAP
1e
30
30
fc
60
60
60
60
60
c0
c0
c0
c0
ENDCHAR
STARTCHAR g
ENCODING 103
SWIDTH 674 0
DWIDTH 10 0
BBX 9 10 0 -2
BITMAP
0f80
3180
3180
6180
6300
6700
3b00
0300
c600
7c00
ENDCHAR
STARTCHAR h
ENCODING 104
SWIDTH 675 0
DWIDTH 10 0
BBX 8 11 1 0
BITMAP
30
30
30
6e
73
63
63
c6
c6
c6
c6
ENDCHAR
STARTCHAR i
ENCODING 105
SWIDTH 343 0
DWIDTH 5 0
BBX 4 11 1 0
BITMAP
30
60
00
60
60
60
60
c0
c0
c0
c0
ENDCHAR
STARTCHAR j
ENCODING 106
SWIDTH 407 0
DWIDTH 5 0
BBX 6 13 -1 -2
BITMAP
0c
18
00
18
18
18
18
30
30
30
30
30
e0
ENDCHAR
STARTCHAR k
ENCODING 107
SWIDTH 666 0
DWIDTH 10 0
BBX 8 11 1 0
BITMAP
30
30
30
63
66
6c
70
d8
cc
c6
c3
ENDCHAR
STARTCHAR l
ENCODING 108
SWIDTH 343 0
DWIDTH 5 0
BBX 4 11 1 0
BITMAP
30
30
30
60
60
60
60
c0
c0
c0
c0
ENDCHAR
STARTCHAR m
ENCODING 109
SWIDTH 991 0
DWIDTH 15 0
BBX 13 8 1 0
BITMAP
6e70
7398
6318
6318
c630
c630
c630
c630
ENDCHAR
STARTCHAR n
ENCODING 110
SWIDTH 675 0
DWIDTH 10 0
BBX 8 8 1 0
BITMAP
6e
73
63
63
c6
c6
c6
c6
ENDCHAR
STARTCHAR o
ENCODING 111
SWIDTH 663 0
DWIDTH 10 0
BBX 8 8 1 0
BITMAP
1e
63
63
c3
c3
c6
c6
78
ENDCHAR
STARTCHAR p
ENCODING 112
SWIDTH 681 0
DWIDTH 10 0
BBX 9 10 0 -2
BITMAP
3700
3980
3180
3180
6180
6300
6300
7c00
c000
c000
ENDCHAR
STARTCHAR q
ENCODING 113
SWIDTH 681 0
DWIDTH 10 0
BBX 8 10 1 -2
BITMAP
3f
63
63
c3
c6
ce
d6
66
0c
0c
ENDCHAR
STARTCHAR r
ENCODING 114
SWIDTH 542 0
DWIDTH 7 0
BBX 6 8 1 0
BITMAP
6c
6c
70
60
c0
c0
c0
c0
ENDCHAR
STARTCHAR s
ENCODING 115
SWIDTH 527 0
DWIDTH 8 0
BBX 6 8 1 0
BITMAP
3c
60
60
70
38
18
18
f0
ENDCHAR
STARTCHAR t
ENCODING 116
SWIDTH 437 0
DWIDTH 6 0
BBX 6 10 1 0
BITMAP
10
30
fc
60
60
60
c0
c0
c0
70
ENDCHAR
STARTCHAR u
ENCODING 117
SWIDTH 675 0
DWIDTH 10 0
BBX 8 8 1 0
BITMAP
63
63
63
63
c6
ce
d6
66
ENDCHAR
STARTCHAR v
ENCODING 118
SWIDTH 630 0
DWIDTH 8 0
BBX 7 8 1 0
BITMAP
c6
c6
c6
c4
c8
d0
e0
c0
ENDCHAR
STARTCHAR w
ENCODING 119
SWIDTH 878 0
DWIDTH 12 0
BBX 11 8 1 0
BITMAP
c060
c660
c660
ce60
d640
d680
e700
c600
ENDCHAR
STARTCHAR x
ENCODING 120
SWIDTH 563 0
DWIDTH 8 0
BBX 8 8 0 0
BITMAP
33
33
32
1c
38
4c
cc
cc
ENDCHAR
STARTCHAR y
ENCODING 121
SWIDTH 633 0
DWIDTH 8 0
BBX 9 10 -1 -2
BITMAP
3180
3180
3180
3100
3200
3400
3800
3000
6000
c000
ENDCHAR
STARTCHAR z
ENCODING 122
SWIDTH 630 0
DWIDTH 8 0
BBX 8 8 0 0
BITMAP
7f
06
0c
18
30
60
c0
fe
ENDCHAR
STARTCHAR braceleft
ENCODING 123
SWIDTH 386 0
DWIDTH 6 0
BBX 6 12 0 -1
BITMAP
0c
18
30
30
30
10
60
10
60
c0
c0
60
ENDCHAR
STARTCHAR bar
ENCODING 124
SWIDTH 259 0
DWIDTH 4 0
BBX 4 12 0 -1
BITMAP
30
30
30
30
60
60
60
60
c0
c0
c0
c0
ENDCHAR
STARTCHAR braceright
ENCODING 125
SWIDTH 386 0
DWIDTH 6 0
BBX 6 12 0 -1
BITMAP
18
0c
0c
18
20
18
20
30
30
30
60
c0
ENDCHAR
STARTCHAR asciitilde
ENCODING 126
SWIDTH 687 0
DWIDTH 10 0
BBX 8 3 1 3
BITMAP
31
7e
8c
ENDCHAR
STARTCHAR nobreakspace
ENCODING 160
SWIDTH 343 0
DWIDTH 4 0
BBX 1 1 0 0
BITMAP
00
ENDCHAR
STARTCHAR Aogonek
ENCODING 161
SWIDTH 771 0
DWIDTH 11 0
BBX 9 12 0 -2
BITMAP
0180
0380
0780
0d80
1980
3180
3f80
6180
c180
c180
1000
0c00
ENDCHAR
STARTCHAR breve
ENCODING 162
SWIDTH 663 0
DWIDTH 10 0
BBX 5 2 3 9
BITMAP
88
70
ENDCHAR
STARTCHAR Lstroke
ENCODING 163
SWIDTH 623 0
DWIDTH 9 0
BBX 8 10 0 0
BITMAP
18
18
18
18
1e
f0
30
30
30
3f
ENDCHAR
STARTCHAR currency
ENCODING 164
SWIDTH 687 0
DWIDTH 10 0
BBX 11 10 -1 0
BITMAP
6060
30c0
1f80
1980
3180
3180
3300
3f00
6180
c0c0
ENDCHAR
STARTCHAR Lcaron
ENCODING 165
SWIDTH 623 0
DWIDTH 9 0
BBX 7 11 1 0
BITMAP
06
66
64
68
60
60
c0
c0
c0
c0
fe
ENDCHAR
STARTCHAR Sacute
ENCODING 166
SWIDTH 639 0
DWIDTH 10 0
BBX 8 13 1 0
BITMAP
07
1c
00
3e
63
60
70
38
1c
0e
06
c6
7c
ENDCHAR
STARTCHAR section
ENCODING 167
SWIDTH 687 0
DWIDTH 10 0
BBX 8 11 1 -1
BITMAP
1e
31
38
1c
6e
66
76
38
1c
8c
78
ENDCHAR
STARTCHAR diaeresis
ENCODING 168
SWIDTH 663 0
DWIDTH 10 0
BBX 4 2 4 9
BITMAP
90
90
ENDCHAR
STARTCHAR Scaron
ENCODING 169
SWIDTH 639 0
DWIDTH 10 0
BBX 8 13 1 0
BITMAP
16
0c
00
3e
63
60
70
38
1c
0e
06
c6
7c
ENDCHAR
STARTCHAR Scedilla
ENCODING 170
SWIDTH 639 0
DWIDTH 10 0
BBX 8 12 1 -2
BITMAP
3e
63
60
70
38
1c
0e
06
c6
7c
08
30
ENDCHAR
STARTCHAR Tcaron
ENCODING 171
SWIDTH 747 0
DWIDTH 10 0
BBX 9 13 1 0
BITMAP
1600
0c00
0000
ff80
1800
1800
1800
1800
3000
3000
3000
3000
3000
ENDCHAR
STARTCHAR Zacute
ENCODING 172
SWIDTH 687 0
DWIDTH 9 0
BBX 9 13 0 0
BITMAP
0380
0e00
0000
3f80
0380
0700
0e00
0c00
1800
3800
7000
e000
fe00
ENDCHAR
STARTCHAR hyphen
ENCODING 173
SWIDTH 289 0
DWIDTH 5 0
BBX 4 1 1 4
BITMAP
f0
ENDCHAR
STARTCHAR Zcaron
ENCODING 174
SWIDTH 687 0
DWIDTH 9 0
BBX 9 13 0 0
BITMAP
0b00
0600
0000
3f80
0380
0700
0e00
0c00
1800
3800
7000
e000
fe00
ENDCHAR
STARTCHAR Zabovedot
ENCODING 175
SWIDTH 687 0
DWIDTH 9 0
BBX 9 13 0 0
BITMAP
0600
0600
0000
3f80
0380
0700
0e00
0c00
1800
3800
7000
e000
fe00
ENDCHAR
STARTCHAR degree
ENCODING 176
SWIDTH 241 0
DWIDTH 4 0
BBX 4 3 0 7
BITMAP
60
90
60
ENDCHAR
STARTCHAR aogonek
ENCODING 177
SWIDTH 681 0
DWIDTH 10 0
BBX 8 10 1 -2
BITMAP
1f
63
63
c3
c6
ce
d6
66
20
18
ENDCHAR
STARTCHAR ogonek
ENCODING 178
SWIDTH 663 0
DWIDTH 10 0
BBX 3 2 4 -2
BITMAP
80
60
ENDCHAR
STARTCHAR lstroke
ENCODING 179
SWIDTH 343 0
DWIDTH 5 0
BBX 6 11 0 0
BITMAP
18
18
18
30
3c
f0
30
60
60
60
60
ENDCHAR
STARTCHAR acute
ENCODING 180
SWIDTH 663 0
DWIDTH 10 0
BBX 5 2 3 9
BITMAP
38
e0
ENDCHAR
STARTCHAR lcaron
ENCODING 181
SWIDTH 642 0
DWIDTH 9 0
BBX 8 12 1 0
BITMAP
03
33
32
34
60
60
60
60
c0
c0
c0
c0
ENDCHAR
STARTCHAR sacute
ENCODING 182
SWIDTH 527 0
DWIDTH 8 0
BBX 7 11 1 0
BITMAP
0e
38
00
3c
60
60
70
38
18
18
f0
ENDCHAR
STARTCHAR caron
ENCODING 183
SWIDTH 663 0
DWIDTH 10 0
BBX 4 2 4 9
BITMAP
b0
60
ENDCHAR
STARTCHAR cedilla
ENCODING 184
SWIDTH 663 0
DWIDTH 10 0
BBX 3 2 2 -2
BITMAP
20
c0
ENDCHAR
STARTCHAR scaron
ENCODING 185
SWIDTH 527 0
DWIDTH 8 0
BBX 6 11 1 0
BITMAP
2c
18
00
3c
60
60
70
38
18
18
f0
ENDCHAR
STARTCHAR scedilla
ENCODING 186
SWIDTH 527 0
DWIDTH 8 0
BBX 6 10 1 -2
BITMAP
3c
60
60
70
38
18
18
f0
10
60
ENDCHAR
STARTCHAR tcaron
ENCODING 187
SWIDTH 571 0
DWIDTH 8 0
BBX 8 13 1 0
BITMAP
03
03
02
14
30
fc
60
60
60
c0
c0
c0
70
ENDCHAR
STARTCHAR zacute
ENCODING 188
SWIDTH 630 0
DWIDTH 8 0
BBX 8 11 0 0
BITMAP
07
1c
00
7f
06
0c
18
30
60
c0
fe
ENDCHAR
STARTCHAR doubleacute
ENCODING 189
SWIDTH 663 0
DWIDTH 10 0
BBX 5 2 3 9
BITMAP
d8
90
ENDCHAR
STARTCHAR zcaron
ENCODING 190
SWIDTH 630 0
DWIDTH 8 0
BBX 8 11 0 0
BITMAP
16
0c
00
7f
06
0c
18
30
60
c0
fe
ENDCHAR
STARTCHAR zabovedot
ENCODING 191
SWIDTH 630 0
DWIDTH 8 0
BBX 8 11 0 0
BITMAP
0c
0c
00
7f
06
0c
18
30
60
c0
fe
ENDCHAR
STARTCHAR Racute
ENCODING 192
SWIDTH 708 0
DWIDTH 10 0
BBX 9 13 1 0
BITMAP
0700
1c00
0000
7e00
6300
6300
6300
6600
fc00
c600
c600
c300
c380
ENDCHAR
STARTCHAR Aacute
ENCODING 193
SWIDTH 771 0
DWIDTH 11 0
BBX 10 13 0 0
BITMAP
01c0
0700
0000
0180
0380
0780
0d80
1980
3180
3f80
6180
c180
c180
ENDCHAR
STARTCHAR Acircumflex
ENCODING 194
SWIDTH 771 0
DWIDTH 11 0
BBX 10 13 0 0
BITMAP
0180
02c0
0000
0180
0380
0780
0d80
1980
3180
3f80
6180
c180
c180
ENDCHAR
STARTCHAR Abreve
ENCODING 195
SWIDTH 771 0
DWIDTH 11 0
BBX 10 13 0 0
BITMAP
0440
0380
0000
0180
0380
0780
0d80
1980
3180
3f80
6180
c180
c180
ENDCHAR
STARTCHAR Adiaeresis
ENCODING 196
SWIDTH 771 0
DWIDTH 11 0
BBX 10 13 0 0
BITMAP
0440
0440
0000
0180
0380
0780
0d80
1980
3180
3f80
6180
c180
c180
ENDCHAR
STARTCHAR Lacute
ENCODING 197
SWIDTH 623 0
DWIDTH 9 0
BBX 7 13 1 0
BITMAP
1c
70
00
60
60
60
60
60
c0
c0
c0
c0
fe
ENDCHAR
STARTCHAR Cacute
ENCODING 198
SWIDTH 737 0
DWIDTH 11 0
BBX 10 13 1 0
BITMAP
01c0
0700
0000
0f80
30c0
6000
6000
c000
c000
c000
c000
e300
7e00
ENDCHAR
STARTCHAR Ccedilla
ENCODING 199
SWIDTH 737 0
DWIDTH 11 0
BBX 10 12 1 -2
BITMAP
0f80
30c0
6000
6000
c000
c000
c000
c000
e300
7e00
0800
3000
ENDCHAR
STARTCHAR Ccaron
ENCODING 200
SWIDTH 737 0
DWIDTH 11 0
BBX 10 13 1 0
BITMAP
0580
0300
0000
0f80
30c0
6000
6000
c000
c000
c000
c000
e300
7e00
ENDCHAR
STARTCHAR Eacute
ENCODING 201
SWIDTH 642 0
DWIDTH 9 0
BBX 8 13 1 0
BITMAP
07
1c
00
7f
60
60
60
7e
c0
c0
c0
c0
fe
ENDCHAR
STARTCHAR Eogonek
ENCODING 202
SWIDTH 642 0
DWIDTH 9 0
BBX 8 12 1 -2
BITMAP
7f
60
60
60
7e
c0
c0
c0
c0
fe
20
18
ENDCHAR
STARTCHAR Ediaeresis
ENCODING 203
SWIDTH 642 0
DWIDTH 9 0
BBX 8 13 1 0
BITMAP
12
12
00
7f
60
60
60
7e
c0
c0
c0
c0
fe
ENDCHAR
STARTCHAR Ecaron
ENCODING 204
SWIDTH 642 0
DWIDTH 9 0
BBX 8 13 1 0
BITMAP
16
0c
00
7f
60
60
60
7e
c0
c0
c0
c0
fe
ENDCHAR
STARTCHAR Iacute
ENCODING 205
SWIDTH 361 0
DWIDTH 5 0
BBX 4 13 1 0
BITMAP
70
c0
00
60
60
60
60
60
c0
c0
c0
c0
c0
ENDCHAR
STARTCHAR Icircumflex
ENCODING 206
SWIDTH 361 0
DWIDTH 5 0
BBX 4 13 1 0
BITMAP
60
b0
00
60
60
60
60
60
c0
c0
c0
c0
c0
ENDCHAR
STARTCHAR Dcaron
ENCODING 207
SWIDTH 822 0
DWIDTH 12 0
BBX 10 13 1 0
BITMAP
0b00
0600
0000
7f80
61c0
60c0
60c0
60c0
c0c0
c180
c180
c300
fe00
ENDCHAR
STARTCHAR Dstroke
ENCODING 208
SWIDTH 822 0
DWIDTH 12 0
BBX 11 10 0 0
BITMAP
3fc0
30e0
3060
3060
fc60
6060
60c0
60c0
6180
7f00
ENDCHAR
STARTCHAR Nacute
ENCODING 209
SWIDTH 789 0
DWIDTH 11 0
BBX 9 13 1 0
BITMAP
0380
0e00
0000
7080
7080
5880
5880
5880
8d00
8d00
8d00
8700
8700
ENDCHAR
STARTCHAR Ncaron
ENCODING 210
SWIDTH 789 0
DWIDTH 11 0
BBX 9 13 1 0
BITMAP
0b00
0600
0000
7080
7080
5880
5880
5880
8d00
8d00
8d00
8700
8700
ENDCHAR
STARTCHAR Oacute
ENCODING 211
SWIDTH 855 0
DWIDTH 12 0
BBX 10 13 1 0
BITMAP
0380
0e00
0000
0f80
31c0
60c0
60c0
c0c0
c0c0
c180
c180
e300
7c00
ENDCHAR
STARTCHAR Ocircumflex
ENCODING 212
SWIDTH 855 0
DWIDTH 12 0
BBX 10 13 1 0
BITMAP
0600
0b00
0000
0f80
31c0
60c0
60c0
c0c0
c0c0
c180
c180
e300
7c00
ENDCHAR
STARTCHAR Odoubleacute
ENCODING 213
SWIDTH 855 0
DWIDTH 12 0
BBX 10 13 1 0
BITMAP
06c0
0480
0000
0f80
31c0
60c0
60c0
c0c0
c0c0
c180
c180
e300
7c00
ENDCHAR
STARTCHAR Odiaeresis
ENCODING 214
SWIDTH 855 0
DWIDTH 12 0
BBX 10 13 1 0
BITMAP
0900
0900
0000
0f80
31c0
60c0
60c0
c0c0
c0c0
c180
c180
e300
7c00
ENDCHAR
STARTCHAR multiply
ENCODING 215
SWIDTH 687 0
DWIDTH 10 0
BBX 7 7 2 1
BITMAP
22
24
18
10
30
48
88
ENDCHAR
STARTCHAR Rcaron
ENCODING 216
SWIDTH 708 0
DWIDTH 10 0
BBX 9 13 1 0
BITMAP
1600
0c00
0000
7e00
6300
6300
6300
6600
fc00
c600
c600
c300
c380
ENDCHAR
STARTCHAR Uring
ENCODING 217
SWIDTH 759 0
DWIDTH 11 0
BBX 9 14 1 0
BITMAP
0600
0900
0600
0000
6180
6180
6180
6180
c300
c300
c300
c300
6600
3c00
ENDCHAR
STARTCHAR Uacute
ENCODING 218
SWIDTH 759 0
DWIDTH 11 0
BBX 9 13 1 0
BITMAP
0700
1c00
0000
6180
6180
6180
6180
c180
c300
c300
c300
6600
3c00
ENDCHAR
STARTCHAR Udoubleacute
ENCODING 219
SWIDTH 759 0
DWIDTH 11 0
BBX 9 13 1 0
BITMAP
0d80
0900
0000
6180
6180
6180
6180
c300
c300
c300
c300
6600
3c00
ENDCHAR
STARTCHAR Udiaeresis
ENCODING 220
SWIDTH 759 0
DWIDTH 11 0
BBX 9 13 1 0
BITMAP
1200
1200
0000
6180
6180
6180
6180
c180
c300
c300
c300
6600
3c00
ENDCHAR
STARTCHAR Yacute
ENCODING 221
SWIDTH 681 0
DWIDTH 10 0
BBX 8 13 2 0
BITMAP
0e
38
00
c3
c3
c6
c4
c8
d0
60
60
60
60
ENDCHAR
STARTCHAR Tcedilla
ENCODING 222
SWIDTH 747 0
DWIDTH 10 0
BBX 9 12 1 -2
BITMAP
ff80
1800
1800
1800
1800
3000
3000
3000
3000
3000
0400
1800
ENDCHAR
STARTCHAR ssharp
ENCODING 223
SWIDTH 708 0
DWIDTH 10 0
BBX 8 12 1 -1
BITMAP
0e
13
33
32
34
62
63
63
63
c2
cc
c0
ENDCHAR
STARTCHAR racute
ENCODING 224
SWIDTH 542 0
DWIDTH 7 0
BBX 7 11 1 0
BITMAP
0e
38
00
6c
6c
70
60
c0
c0
c0
c0
ENDCHAR
STARTCHAR aacute
ENCODING 225
SWIDTH 681 0
DWIDTH 10 0
BBX 8 11 1 0
BITMAP
07
1c
00
1f
63
63
c3
c6
ce
d6
66
ENDCHAR
STARTCHAR acircumflex
ENCODING 226
SWIDTH 681 0
DWIDTH 10 0
BBX 8 11 1 0
BITMAP
0c
16
00
1f
63
63
c3
c6
ce
d6
66
ENDCHAR
STARTCHAR abreve
ENCODING 227
SWIDTH 681 0
DWIDTH 10 0
BBX 8 11 1 0
BITMAP
22
1c
00
1f
63
63
c3
c6
ce
d6
66
ENDCHAR
STARTCHAR adiaeresis
ENCODING 228
SWIDTH 681 0
DWIDTH 10 0
BBX 8 11 1 0
BITMAP
12
12
00
1f
63
63
c3
c6
ce
d6
66
ENDCHAR
STARTCHAR lacute
ENCODING 229
SWIDTH 343 0
DWIDTH 5 0
BBX 7 14 1 0
BITMAP
0e
38
00
30
30
30
60
60
60
60
c0
c0
c0
c0
ENDCHAR
STARTCHAR cacute
ENCODING 230
SWIDTH 548 0
DWIDTH 8 0
BBX 7 11 1 0
BITMAP
0e
38
00
1e
60
60
c0
c0
c0
c4
78
ENDCHAR
STARTCHAR ccedilla
ENCODING 231
SWIDTH 548 0
DWIDTH 8 0
BBX 7 10 1 -2
BITMAP
1e
60
60
c0
c0
c0
c4
78
10
60
ENDCHAR
STARTCHAR ccaron
ENCODING 232
SWIDTH 548 0
DWIDTH 8 0
BBX 7 11 1 0
BITMAP
2c
18
00
1e
60
60
c0
c0
c0
c4
78
ENDCHAR
STARTCHAR eacute
ENCODING 233
SWIDTH 612 0
DWIDTH 9 0
BBX 7 11 1 0
BITMAP
0e
38
00
1c
66
46
cc
f0
c0
c4
78
ENDCHAR
STARTCHAR eogonek
ENCODING 234
SWIDTH 612 0
DWIDTH 9 0
BBX 7 10 1 -2
BITMAP
1c
66
46
cc
f0
c0
c4
78
20
18
ENDCHAR
STARTCHAR ediaeresis
ENCODING 235
SWIDTH 612 0
DWIDTH 9 0
BBX 7 11 1 0
BITMAP
24
24
00
1c
66
46
cc
f0
c0
c4
78
ENDCHAR
STARTCHAR ecaron
ENCODING 236
SWIDTH 612 0
DWIDTH 9 0
BBX 7 11 1 0
BITMAP
2c
18
00
1c
66
46
cc
f0
c0
c4
78
ENDCHAR
STARTCHAR iacute
ENCODING 237
SWIDTH 343 0
DWIDTH 5 0
BBX 5 11 1 0
BITMAP
38
60
00
60
60
60
60
c0
c0
c0
c0
ENDCHAR
STARTCHAR icircumflex
ENCODING 238
SWIDTH 343 0
DWIDTH 5 0
BBX 4 11 1 0
BITMAP
60
b0
00
60
60
60
60
c0
c0
c0
c0
ENDCHAR
STARTCHAR dcaron
ENCODING 239
SWIDTH 1000 0
DWIDTH 14 0
BBX 13 12 1 0
BITMAP
0018
0198
0190
01a0
1f00
6300
6300
c300
c600
ce00
d600
6600
ENDCHAR
STARTCHAR dstroke
ENCODING 240
SWIDTH 928 0
DWIDTH 13 0
BBX 12 11 1 0
BITMAP
0180
0ff0
0180
1f00
6300
6300
c300
c600
ce00
d600
6600
ENDCHAR
STARTCHAR nacute
ENCODING 241
SWIDTH 675 0
DWIDTH 10 0
BBX 8 11 1 0
BITMAP
07
1c
00
6e
73
63
63
c6
c6
c6
c6
ENDCHAR
STARTCHAR ncaron
ENCODING 242
SWIDTH 675 0
DWIDTH 10 0
BBX 8 11 1 0
BITMAP
16
0c
00
6e
73
63
63
c6
c6
c6
c6
ENDCHAR
STARTCHAR oacute
ENCODING 243
SWIDTH 663 0
DWIDTH 10 0
BBX 8 11 1 0
BITMAP
0e
38
00
1e
63
63
c3
c3
c6
c6
78
ENDCHAR
STARTCHAR ocircumflex
ENCODING 244
SWIDTH 663 0
DWIDTH 10 0
BBX 8 11 1 0
BITMAP
0c
16
00
1e
63
63
c3
c3
c6
c6
78
ENDCHAR
STARTCHAR odoubleacute
ENCODING 245
SWIDTH 663 0
DWIDTH 10 0
BBX 8 11 1 0
BITMAP
1b
12
00
1e
63
63
c3
c3
c6
c6
78
ENDCHAR
STARTCHAR odiaeresis
ENCODING 246
SWIDTH 663 0
DWIDTH 10 0
BBX 8 11 1 0
BITMAP
12
12
00
1e
63
63
c3
c3
c6
c6
78
ENDCHAR
STARTCHAR division
ENCODING 247
SWIDTH 687 0
DWIDTH 10 0
BBX 8 7 1 1
BITMAP
04
04
00
ff
00
10
10
ENDCHAR
STARTCHAR rcaron
ENCODING 248
SWIDTH 542 0
DWIDTH 7 0
BBX 6 11 1 0
BITMAP
2c
18
00
6c
6c
70
60
c0
c0
c0
c0
ENDCHAR
STARTCHAR uring
ENCODING 249
SWIDTH 675 0
DWIDTH 10 0
BBX 8 12 1 0
BITMAP
0c
12
0c
00
63
63
63
63
c6
ce
d6
66
ENDCHAR
STARTCHAR uacute
ENCODING 250
SWIDTH 675 0
DWIDTH 10 0
BBX 8 11 1 0
BITMAP
0e
38
00
63
63
63
63
c6
ce
d6
66
ENDCHAR
STARTCHAR udoubleacute
ENCODING 251
SWIDTH 675 0
DWIDTH 10 0
BBX 8 11 1 0
BITMAP
1b
12
00
63
63
63
63
c6
ce
d6
66
ENDCHAR
STARTCHAR udiaeresis
ENCODING 252
SWIDTH 675 0
DWIDTH 10 0
BBX 8 11 1 0
BITMAP
22
22
00
63
63
63
63
c6
ce
d6
66
ENDCHAR
STARTCHAR yacute
ENCODING 253
SWIDTH 633 0
DWIDTH 8 0
BBX 9 13 -1 -2
BITMAP
0380
0e00
0000
3180
3180
3180
3100
3200
3400
3800
3000
6000
c000
ENDCHAR
STARTCHAR tcedilla
ENCODING 254
SWIDTH 437 0
DWIDTH 6 0
BBX 6 12 1 -2
BITMAP
10
30
fc
60
60
60
c0
c0
c0
70
10
60
ENDCHAR
STARTCHAR abovedot
ENCODING 255
SWIDTH 663 0
DWIDTH 10 0
BBX 2 2 5 9
BITMAP
c0
c0
ENDCHAR
ENDFONT
